<svg width="183" height="38" viewBox="0 0 183 38" fill="none" xmlns="http://www.w3.org/2000/svg">
<path d="M16.564 37.52C11.6067 37.52 7.724 36.324 4.916 33.932C2.14267 31.5053 0.669333 28.004 0.496 23.428C0.461333 22.492 0.444 20.9667 0.444 18.852C0.444 16.7027 0.461333 15.1427 0.496 14.172C0.669333 9.66533 2.17733 6.19867 5.02 3.772C7.86267 1.31066 11.7107 0.079998 16.564 0.079998C19.6147 0.079998 22.3533 0.599999 24.78 1.64C27.2067 2.64533 29.1133 4.10133 30.5 6.008C31.9213 7.88 32.6493 10.0813 32.684 12.612V12.716C32.684 12.9933 32.5627 13.236 32.32 13.444C32.112 13.6173 31.8693 13.704 31.592 13.704H24.572C24.1213 13.704 23.7747 13.6173 23.532 13.444C23.2893 13.236 23.0813 12.872 22.908 12.352C22.4227 10.584 21.66 9.35333 20.62 8.66C19.58 7.932 18.2107 7.568 16.512 7.568C12.4213 7.568 10.3067 9.856 10.168 14.432C10.1333 15.368 10.116 16.8067 10.116 18.748C10.116 20.6893 10.1333 22.1627 10.168 23.168C10.3067 27.744 12.4213 30.032 16.512 30.032C18.2107 30.032 19.5973 29.668 20.672 28.94C21.7467 28.1773 22.492 26.9467 22.908 25.248C23.0467 24.728 23.2373 24.3813 23.48 24.208C23.7227 24 24.0867 23.896 24.572 23.896H31.592C31.904 23.896 32.164 24 32.372 24.208C32.6147 24.416 32.7187 24.676 32.684 24.988C32.6493 27.5187 31.9213 29.7373 30.5 31.644C29.1133 33.516 27.2067 34.972 24.78 36.012C22.3533 37.0173 19.6147 37.52 16.564 37.52ZM65.1799 9.96C65.5266 9.96 65.7866 10.064 65.9599 10.272C66.0986 10.4107 66.1679 10.584 66.1679 10.792C66.1679 10.8613 66.1506 10.9307 66.1159 11C66.1159 11.1733 65.9946 11.416 65.7519 11.728L55.7679 23.584L61.2799 35.284C61.3146 35.3533 61.3319 35.492 61.3319 35.7C61.3319 36.0467 61.1933 36.3587 60.9159 36.636C60.6733 36.8787 60.3613 37 59.9799 37H53.4279C52.8386 37 52.3879 36.7227 52.0759 36.168L48.0199 26.704H45.2639L43.3399 35.7C43.2706 36.0813 43.0799 36.3933 42.7679 36.636C42.4906 36.8787 42.1613 37 41.7799 37H35.7999C35.4186 37 35.1239 36.8787 34.9159 36.636C34.7079 36.3933 34.6386 36.0813 34.7079 35.7L39.9599 11.26C40.0293 10.8787 40.2026 10.5667 40.4799 10.324C40.7919 10.0813 41.1386 9.96 41.5199 9.96H47.4999C47.8813 9.96 48.1759 10.0813 48.3839 10.324C48.5573 10.4973 48.6439 10.7227 48.6439 11C48.6439 11.0693 48.6266 11.156 48.5919 11.26L46.7199 19.892H49.3199L56.7559 10.792C57.2413 10.2373 57.7786 9.96 58.3679 9.96H65.1799ZM76.5334 37.52C74.6961 37.52 73.0147 37.1733 71.4894 36.48C69.9987 35.752 68.8201 34.7813 67.9534 33.568C67.1214 32.32 66.7054 30.9507 66.7054 29.46C66.7054 27.068 67.6761 25.144 69.6174 23.688C71.5934 22.232 74.2974 21.2267 77.7294 20.672L84.2294 19.684V18.956C84.2294 17.6387 83.9521 16.668 83.3974 16.044C82.8427 15.42 81.9067 15.108 80.5894 15.108C79.7921 15.108 79.1334 15.2467 78.6134 15.524C78.0934 15.8013 77.5561 16.1827 77.0014 16.668C76.5161 17.084 76.1521 17.3613 75.9094 17.5C75.8054 17.7773 75.6147 17.916 75.3374 17.916H69.6694C69.3227 17.916 69.0281 17.812 68.7854 17.604C68.5774 17.3613 68.4907 17.084 68.5254 16.772C68.5601 15.836 69.0107 14.796 69.8774 13.652C70.7787 12.508 72.1307 11.52 73.9334 10.688C75.7707 9.856 78.0241 9.44 80.6934 9.44C84.9574 9.44 88.1121 10.3933 90.1574 12.3C92.2027 14.172 93.2254 16.7027 93.2254 19.892V35.7C93.2254 36.0467 93.1041 36.3587 92.8614 36.636C92.6187 36.8787 92.3067 37 91.9254 37H85.8934C85.5467 37 85.2347 36.8787 84.9574 36.636C84.7147 36.3587 84.5934 36.0467 84.5934 35.7V33.88C83.8307 34.9547 82.7561 35.8387 81.3694 36.532C80.0174 37.1907 78.4054 37.52 76.5334 37.52ZM78.9774 31.592C80.5721 31.592 81.8547 31.072 82.8254 30.032C83.8307 28.992 84.3334 27.4667 84.3334 25.456V24.728L79.9134 25.508C76.7934 26.0627 75.2334 27.1547 75.2334 28.784C75.2334 29.6507 75.5974 30.344 76.3254 30.864C77.0534 31.3493 77.9374 31.592 78.9774 31.592ZM111.354 37.52C107.194 37.52 103.918 36.3933 101.526 34.14C99.1335 31.8867 97.8855 28.6107 97.7815 24.312V22.492C97.9202 18.4013 99.1855 15.212 101.578 12.924C104.004 10.6013 107.246 9.44 111.302 9.44C114.248 9.44 116.727 10.0467 118.738 11.26C120.783 12.4387 122.308 14.068 123.314 16.148C124.354 18.228 124.874 20.62 124.874 23.324V24.572C124.874 24.9187 124.752 25.2307 124.51 25.508C124.267 25.7507 123.955 25.872 123.574 25.872H106.934V26.236C107.003 27.8653 107.402 29.1827 108.13 30.188C108.858 31.1933 109.915 31.696 111.302 31.696C112.168 31.696 112.879 31.5227 113.434 31.176C113.988 30.7947 114.491 30.344 114.942 29.824C115.254 29.4427 115.496 29.2173 115.67 29.148C115.878 29.044 116.19 28.992 116.606 28.992H123.054C123.366 28.992 123.626 29.096 123.834 29.304C124.076 29.4773 124.198 29.72 124.198 30.032C124.198 30.9333 123.678 31.9733 122.638 33.152C121.632 34.3307 120.159 35.3533 118.218 36.22C116.276 37.0867 113.988 37.52 111.354 37.52ZM115.722 20.724V20.62C115.722 18.9213 115.323 17.5867 114.526 16.616C113.763 15.6107 112.688 15.108 111.302 15.108C109.95 15.108 108.875 15.6107 108.078 16.616C107.315 17.5867 106.934 18.9213 106.934 20.62V20.724H115.722ZM130.829 37C130.447 37 130.135 36.8787 129.893 36.636C129.65 36.3933 129.529 36.0813 129.529 35.7V11.26C129.529 10.8787 129.65 10.5667 129.893 10.324C130.135 10.0813 130.447 9.96 130.829 9.96H136.965C137.346 9.96 137.658 10.0813 137.901 10.324C138.143 10.5667 138.265 10.8787 138.265 11.26V19.892H147.625V11.26C147.625 10.8787 147.746 10.5667 147.989 10.324C148.231 10.0813 148.543 9.96 148.925 9.96H155.061C155.442 9.96 155.754 10.0813 155.997 10.324C156.239 10.5667 156.361 10.8787 156.361 11.26V35.7C156.361 36.0467 156.239 36.3587 155.997 36.636C155.754 36.8787 155.442 37 155.061 37H148.925C148.543 37 148.231 36.8787 147.989 36.636C147.746 36.3933 147.625 36.0813 147.625 35.7V26.704H138.265V35.7C138.265 36.0467 138.143 36.3587 137.901 36.636C137.658 36.8787 137.346 37 136.965 37H130.829ZM163.769 37C163.388 37 163.076 36.8787 162.833 36.636C162.59 36.3933 162.469 36.0813 162.469 35.7V11.26C162.469 10.8787 162.59 10.5667 162.833 10.324C163.076 10.0813 163.388 9.96 163.769 9.96H181.137C181.518 9.96 181.83 10.0813 182.073 10.324C182.316 10.5667 182.437 10.8787 182.437 11.26V15.472C182.437 15.8187 182.316 16.1307 182.073 16.408C181.83 16.6507 181.518 16.772 181.137 16.772H171.205V35.7C171.205 36.0467 171.084 36.3587 170.841 36.636C170.598 36.8787 170.286 37 169.905 37H163.769Z" fill="#111111"/>
</svg>
