<svg width="183" height="38" fill="none" xmlns="http://www.w3.org/2000/svg"><path d="M16.564 37.52c-4.957 0-8.84-1.196-11.648-3.588C2.143 31.505.669 28.004.496 23.428c-.035-.936-.052-2.461-.052-4.576 0-2.15.017-3.71.052-4.68.173-4.507 1.681-7.973 4.524-10.4C7.863 1.311 11.71.08 16.564.08c3.05 0 5.79.52 8.216 1.56 2.427 1.005 4.333 2.461 5.72 4.368 1.421 1.872 2.15 4.073 2.184 6.604v.104c0 .277-.121.52-.364.728-.208.173-.45.26-.728.26h-7.02c-.45 0-.797-.087-1.04-.26-.243-.208-.45-.572-.624-1.092-.485-1.768-1.248-2.999-2.288-3.692-1.04-.728-2.41-1.092-4.108-1.092-4.09 0-6.205 2.288-6.344 6.864-.035.936-.052 2.375-.052 4.316 0 1.941.017 3.415.052 4.42.139 4.576 2.253 6.864 6.344 6.864 1.699 0 3.085-.364 4.16-1.092 1.075-.763 1.82-1.993 2.236-3.692.139-.52.33-.867.572-1.04.243-.208.607-.312 1.092-.312h7.02c.312 0 .572.104.78.312a.85.85 0 01.312.78c-.035 2.53-.763 4.75-2.184 6.656-1.387 1.872-3.293 3.328-5.72 4.368-2.427 1.005-5.165 1.508-8.216 1.508zM65.18 9.96c.347 0 .607.104.78.312a.705.705 0 01.208.52c0 .07-.017.139-.052.208 0 .173-.121.416-.364.728l-9.984 11.856 5.512 11.7c.035.07.052.208.052.416 0 .347-.139.659-.416.936-.243.243-.555.364-.936.364h-6.552c-.59 0-1.04-.277-1.352-.832l-4.056-9.464h-2.756L43.34 35.7c-.07.381-.26.693-.572.936a1.45 1.45 0 01-.988.364H35.8c-.381 0-.676-.121-.884-.364-.208-.243-.277-.555-.208-.936l5.252-24.44a1.58 1.58 0 01.52-.936 1.653 1.653 0 011.04-.364h5.98c.381 0 .676.121.884.364.173.173.26.399.26.676 0 .07-.017.156-.052.26l-1.872 8.632h2.6l7.436-9.1c.485-.555 1.023-.832 1.612-.832h6.812zm11.353 27.56c-1.837 0-3.518-.347-5.044-1.04-1.49-.728-2.669-1.699-3.536-2.912a7.253 7.253 0 01-1.248-4.108c0-2.392.971-4.316 2.912-5.772 1.976-1.456 4.68-2.461 8.112-3.016l6.5-.988v-.728c0-1.317-.277-2.288-.832-2.912-.554-.624-1.49-.936-2.808-.936-.797 0-1.456.139-1.976.416a8.71 8.71 0 00-1.612 1.144c-.485.416-.849.693-1.092.832-.104.277-.294.416-.572.416H69.67c-.346 0-.64-.104-.884-.312a1.051 1.051 0 01-.26-.832c.035-.936.486-1.976 1.352-3.12.902-1.144 2.254-2.132 4.056-2.964 1.838-.832 4.091-1.248 6.76-1.248 4.264 0 7.42.953 9.464 2.86 2.046 1.872 3.068 4.403 3.068 7.592V35.7c0 .347-.12.659-.364.936-.242.243-.554.364-.936.364h-6.032c-.346 0-.658-.121-.936-.364a1.384 1.384 0 01-.364-.936v-1.82c-.762 1.075-1.837 1.959-3.224 2.652-1.352.659-2.964.988-4.836.988zm2.444-5.928c1.595 0 2.878-.52 3.848-1.56 1.006-1.04 1.508-2.565 1.508-4.576v-.728l-4.42.78c-3.12.555-4.68 1.647-4.68 3.276 0 .867.364 1.56 1.092 2.08.728.485 1.612.728 2.652.728zm32.377 5.928c-4.16 0-7.436-1.127-9.828-3.38-2.392-2.253-3.64-5.53-3.745-9.828v-1.82c.14-4.09 1.404-7.28 3.797-9.568 2.426-2.323 5.668-3.484 9.724-3.484 2.946 0 5.425.607 7.436 1.82 2.045 1.179 3.57 2.808 4.576 4.888 1.04 2.08 1.56 4.472 1.56 7.176v1.248c0 .347-.122.659-.364.936-.243.243-.555.364-.936.364h-16.64v.364c.069 1.63.468 2.947 1.196 3.952s1.785 1.508 3.172 1.508c.866 0 1.577-.173 2.132-.52a7.98 7.98 0 001.508-1.352c.312-.381.554-.607.728-.676.208-.104.52-.156.936-.156h6.448c.312 0 .572.104.78.312a.845.845 0 01.364.728c0 .901-.52 1.941-1.56 3.12-1.006 1.179-2.479 2.201-4.42 3.068-1.942.867-4.23 1.3-6.864 1.3zm4.368-16.796v-.104c0-1.699-.399-3.033-1.196-4.004-.763-1.005-1.838-1.508-3.224-1.508-1.352 0-2.427.503-3.224 1.508-.763.97-1.144 2.305-1.144 4.004v.104h8.788zM130.829 37c-.382 0-.694-.121-.936-.364-.243-.243-.364-.555-.364-.936V11.26c0-.381.121-.693.364-.936.242-.243.554-.364.936-.364h6.136c.381 0 .693.121.936.364.242.243.364.555.364.936v8.632h9.36V11.26c0-.381.121-.693.364-.936.242-.243.554-.364.936-.364h6.136c.381 0 .693.121.936.364.242.243.364.555.364.936V35.7c0 .347-.122.659-.364.936-.243.243-.555.364-.936.364h-6.136c-.382 0-.694-.121-.936-.364-.243-.243-.364-.555-.364-.936v-8.996h-9.36V35.7c0 .347-.122.659-.364.936-.243.243-.555.364-.936.364h-6.136zm32.94 0c-.381 0-.693-.121-.936-.364-.243-.243-.364-.555-.364-.936V11.26c0-.381.121-.693.364-.936.243-.243.555-.364.936-.364h17.368c.381 0 .693.121.936.364.243.243.364.555.364.936v4.212c0 .347-.121.659-.364.936-.243.243-.555.364-.936.364h-9.932V35.7c0 .347-.121.659-.364.936-.243.243-.555.364-.936.364h-6.136z" fill="#111"/></svg>